<svg width="478" height="358" viewBox="0 0 478 358" fill="none" xmlns="http://www.w3.org/2000/svg">
<style>
  @keyframes draw {
    from { stroke-dashoffset: var(--len); }
    to { stroke-dashoffset: 0; }
  }

  /* Red: starts first */
  #red-line {
    --len: 1500;
    stroke-dasharray: 1500;
    stroke-dashoffset: 1500;
    animation: draw 0.6s cubic-bezier(0.455, 0.03, 0.515, 0.955) forwards;
    animation-delay: 0s;
  }

  /* Green: 0.19s overlap with red */
  #green-line {
    --len: 2000;
    stroke-dasharray: 2000;
    stroke-dashoffset: 2000;
    animation: draw 0.6s cubic-bezier(0.455, 0.03, 0.515, 0.955) forwards;
    animation-delay: 0.41s;
  }

  /* Blue: fires at 50% of green */
  #blue-line {
    --len: 1500;
    stroke-dasharray: 1500;
    stroke-dashoffset: 1500;
    animation: draw 0.38s cubic-bezier(0.455, 0.03, 0.515, 0.955) forwards;
    animation-delay: 0.71s;
  }

  /* Yellow: 0.19s overlap with green */
  #yellow-line {
    --len: 2000;
    stroke-dasharray: 2000;
    stroke-dashoffset: 2000;
    animation: draw 0.53s cubic-bezier(0.455, 0.03, 0.515, 0.955) forwards;
    animation-delay: 0.68s;
  }
</style>
<g id="W">
<g id="green">
<mask id="mask0_127_3" style="mask-type:alpha" maskUnits="userSpaceOnUse" x="136" y="101" width="217" height="246">
<path id="green-mask" d="M338.352 281.844C328.112 285.745 315.922 291.596 304.219 298.423L289.591 282.819L332.501 236.983L284.227 258.438L272.036 242.347L317.385 196.998L269.111 216.991L256.92 200.899L302.756 157.501L253.507 177.981L241.316 161.89L288.128 118.004C258.871 128.731 232.052 143.36 204.257 161.402L228.151 163.352L230.589 180.419L192.067 200.899L210.596 202.362L214.985 217.966C195.968 249.173 178.901 282.331 155.983 346.21L136.966 338.895C146.231 316.952 154.52 297.935 162.322 281.356C166.223 273.31 166.932 271.848 170.124 265.265C180.364 244.785 189.629 228.206 199.381 214.065L177.926 211.627L175.488 194.56L213.522 175.055L193.042 173.105L188.653 156.038C219.861 132.145 251.556 114.591 294.954 101.912L307.145 118.004L261.796 160.914L309.583 141.41L321.773 157.013L276.912 199.924L324.699 180.419L336.89 196.023L293.491 239.909L340.303 219.429L352.493 235.032L311.046 279.893C322.749 273.067 333.476 268.678 346.154 265.265C348.73 259.727 335.887 287.432 338.352 281.844Z" fill="#217A3C"/>
</mask>
<g mask="url(#mask0_127_3)">
<path id="green-line" d="M142 354.105L176.75 280.855L211.5 207.605L190.5 200.105L235.5 169.105L188.5 164.105C199.5 154.771 220.3 139.305 235.5 132.105C250.7 124.905 292.167 107.438 311 99.6048L241 174.105L322.5 142.105L256.5 212.605L338 182.605L276.5 250.115L334 231.605L338 239.094L282 303.105C301.333 287.771 346 280.855 346 280.855C346 280.855 330.333 360.438 311 357.105" stroke="#217A3C" stroke-width="30"/>
</g>
</g>
<g id="red">
<mask id="mask1_127_3" style="mask-type:alpha" maskUnits="userSpaceOnUse" x="0" y="0" width="180" height="299">
<path id="red-mask" d="M126.969 298.423C138.672 291.596 150.863 285.745 163.053 281.356L170.855 265.265C158.177 268.191 146.474 273.067 133.796 280.381L179.632 235.032L167.442 219.429L118.68 239.421L166.467 193.585L156.714 177.981L103.564 198.461L153.301 154.575L143.549 138.971L91.3733 157.013L142.573 115.566L132.333 99.4743L77.2323 118.004L133.796 76.5562L123.556 60.9525L62.6038 78.0191C91.8609 60.4648 117.705 41.4477 143.549 19.5048L132.333 4.87626C93.3238 22.9182 58.7028 36.5715 20.6685 44.861C45.5371 34.1334 67.48 23.4058 83.5714 12.1905L66.9923 3.05176e-05C48.4628 15.1162 27.0076 29.2572 0.676147 43.8857L10.9161 60.9525C45.0495 55.5886 78.2076 43.8858 111.853 27.3067C87.4723 45.8362 63.0914 62.9029 38.2228 78.0191L47.9752 95.0857L108.44 78.5067L53.339 119.467L63.579 135.071L119.168 117.029L68.9428 158.476L78.6952 174.08L129.895 157.013L82.1085 199.924L94.299 215.528L144.524 196.023L97.2247 240.884L109.415 256.975L159.152 236.983L112.829 282.819L126.969 298.423Z" fill="#DC1D27"/>
</mask>
<g mask="url(#mask1_127_3)">
<path id="red-line" d="M84.5 -1.89524L6 53.1048L146 10.6048L39.5 89.1048L131 70.6048L53.5 132.605L140 109.605L66.5 170.105L154 146.605L84.5 212.605L165.5 187.105L95 254.105L172.5 230.105L115 290.105L180.5 270.605" stroke="#DC1D27" stroke-width="30"/>
</g>
</g>
<g id="blue">
<mask id="mask2_127_3" style="mask-type:alpha" maskUnits="userSpaceOnUse" x="179" y="0" width="132" height="130">
<path id="blue-mask" d="M276.912 78.0191C260.821 88.7467 234.977 100.45 197.431 112.152L208.646 129.219C252.044 110.202 279.838 93.6229 293.979 80.4571L284.227 63.3905L227.663 77.5314C259.358 61.9276 287.152 42.4229 310.558 18.0419L299.343 4.87622C265.697 22.4305 235.465 36.0838 199.381 44.861C222.787 33.6457 242.291 23.4057 258.383 12.1905L241.804 0C224.25 15.1162 204.257 29.2571 179.876 43.8857L190.116 60.9524C220.836 55.101 250.581 43.8857 282.276 26.819C259.846 44.3733 234.977 60.4648 206.208 75.581L216.448 92.6476L276.912 78.0191Z" fill="#0073C1"/>
</mask>
<g mask="url(#mask2_127_3)">
<path id="blue-line" d="M255 2.10476C234.167 16.7714 190.2 46.8048 181 49.6048C171.8 52.4048 177.167 56.4381 181 58.1048C220.5 46.4381 302.8 15.5048 314 7.10476C328 -3.39524 203.5 94.1048 194.5 97.1048C187.3 99.5048 202.833 93.7714 211.5 90.6048L294 67.6048C270.667 84.7714 218.1 120.805 194.5 127.605" stroke="#0073C1" stroke-width="30"/>
</g>
</g>
<g id="yellow">
<mask id="mask3_127_3" style="mask-type:alpha" maskUnits="userSpaceOnUse" x="313" y="0" width="165" height="347">
<path id="yellow-mask" d="M337.377 281.844C330.063 298.423 322.749 316.953 313.971 338.895L332.501 346.21C354.931 280.869 369.56 247.223 389.552 215.528L384.189 199.924L368.585 199.436L407.107 176.518L401.743 160.914H377.362L424.661 135.071L417.347 117.029L381.75 119.954L440.265 91.1848L432.463 73.1429L384.189 81.4324C420.76 65.341 451.968 44.861 477.324 19.5048L466.109 4.87627C431.975 21.9429 399.792 36.0838 362.246 44.3734C386.139 33.6457 408.57 22.9182 424.173 12.1906L407.594 3.8147e-05C389.552 14.6286 367.61 29.2572 341.278 43.8858L351.518 60.9525C385.651 55.101 417.347 43.3982 451.48 25.8439C426.124 44.861 397.842 61.9277 365.659 75.581L373.461 95.0858L418.81 87.2839L361.27 115.566L369.072 134.095L405.156 130.682L356.882 157.013L362.246 173.105L388.09 172.617L348.105 196.023L353.469 212.114L373.461 212.602C363.709 227.718 354.931 244.297 345.179 265.265L337.377 281.844Z" fill="#DCC61D"/>
</mask>
<g mask="url(#mask3_127_3)">
<path id="yellow-line" d="M317.5 351.105L382 208.605L355.5 202.605L403.5 169.605L363 163.105L423 126.605L363 123.105L435 82.6048L367 87.6048C399.667 68.4381 466.7 27.1048 473.5 15.1048C482 0.104757 369.5 60.6048 343.5 58.6048C322.7 57.0048 391.5 19.9381 428.5 1.60476" stroke="#DCC61D" stroke-width="30"/>
</g>
</g>
</g>
</svg>
