<svg width="392" height="284" viewBox="0 0 392 284" fill="none" xmlns="http://www.w3.org/2000/svg">
<path d="M277.5 231.2C269.1 234.4 259.1 239.2 249.5 244.8L237.5 232L272.7 194.4L233.1 212L223.1 198.8L260.3 161.6L220.7 178L210.7 164.8L248.3 129.2L207.9 146L197.9 132.8L236.3 96.8C212.3 105.6 190.3 117.6 167.5 132.4L187.1 134L189.1 148L157.5 164.8L172.7 166L176.3 178.8C160.7 204.4 146.7 231.6 127.9 284L112.3 278C119.9 260 126.7 244.4 133.1 230.8C136.3 224.2 136.882 223 139.5 217.6C147.9 200.8 155.5 187.2 163.5 175.6L145.9 173.6L143.9 159.6L175.1 143.6L158.3 142L154.7 128C180.3 108.4 206.3 94 241.9 83.6L251.9 96.8L214.7 132L253.9 116L263.9 128.8L227.1 164L266.3 148L276.3 160.8L240.7 196.8L279.1 180L289.1 192.8L255.1 229.6C264.7 224 273.5 220.4 283.9 217.6C286.013 213.057 275.478 235.784 277.5 231.2Z" fill="#217A3C"/>
<path d="M104.1 244.8C113.7 239.2 123.7 234.4 133.7 230.8L140.1 217.6C129.7 220 120.1 224 109.7 230L147.3 192.8L137.3 180L97.3 196.4L136.5 158.8L128.5 146L84.9 162.8L125.7 126.8L117.7 114L74.9 128.8L116.9 94.8L108.5 81.6L63.3 96.8L109.7 62.8L101.3 50L51.3 64C75.3 49.6 96.5 34 117.7 16L108.5 4.00003C76.5 18.8 48.1 30 16.9 36.8C37.3 28 55.3 19.2 68.5 10L54.9 0C39.7 12.4 22.1 24 0.5 36L8.89999 50C36.9 45.6 64.1 36 91.7 22.4C71.7 37.6 51.7 51.6 31.3 64L39.3 78L88.9 64.4L43.7 98L52.1 110.8L97.7 96L56.5 130L64.5 142.8L106.5 128.8L67.3 164L77.3 176.8L118.5 160.8L79.7 197.6L89.7 210.8L130.5 194.4L92.5 232L104.1 244.8Z" fill="#DC1D27"/>
<path d="M227.1 64C213.9 72.8 192.7 82.4 161.9 92L171.1 106C206.7 90.4 229.5 76.8 241.1 66L233.1 52L186.7 63.6C212.7 50.8 235.5 34.8 254.7 14.8L245.5 3.99999C217.9 18.4 193.1 29.6 163.5 36.8C182.7 27.6 198.7 19.2 211.9 9.99998L198.3 -3.05176e-05C183.9 12.4 167.5 24 147.5 36L155.9 50C181.1 45.2 205.5 36 231.5 22C213.1 36.4 192.7 49.6 169.1 62L177.5 76L227.1 64Z" fill="#0073C1"/>
<path d="M276.7 231.2C270.7 244.8 264.7 260 257.5 278L272.7 284C291.1 230.4 303.1 202.8 319.5 176.8L315.1 164L302.3 163.6L333.9 144.8L329.5 132H309.5L348.3 110.8L342.3 96L313.1 98.4L361.1 74.8L354.7 60L315.1 66.8C345.1 53.6 370.7 36.8 391.5 16L382.3 4.00003C354.3 18 327.9 29.6 297.1 36.4C316.7 27.6 335.1 18.8 347.9 10L334.3 0C319.5 12 301.5 24 279.9 36L288.3 50C316.3 45.2 342.3 35.6 370.3 21.2C349.5 36.8 326.3 50.8 299.9 62L306.3 78L343.5 71.6L296.3 94.8L302.7 110L332.3 107.2L292.7 128.8L297.1 142L318.3 141.6L285.5 160.8L289.9 174L306.3 174.4C298.3 186.8 291.1 200.4 283.1 217.6L276.7 231.2Z" fill="#DCC61D"/>
</svg>
